<?xml version="1.0" standalone="no"?>
<!DOCTYPE svg PUBLIC "-//W3C//DTD SVG 20010904//EN"
 "http://www.w3.org/TR/2001/REC-SVG-20010904/DTD/svg10.dtd">
<svg version="1.0" xmlns="http://www.w3.org/2000/svg"
 width="237.000000pt" height="237.000000pt" viewBox="0 0 237.000000 237.000000"
 preserveAspectRatio="xMidYMid meet">

<g transform="translate(0.000000,237.000000) scale(0.100000,-0.100000)"
fill="#000000" stroke="none">
<path d="M0 1246 l0 -1125 58 25 c31 14 66 29 77 33 98 43 265 111 272 111 4
1 26 9 48 20 22 11 46 19 52 20 42 1 144 106 164 170 11 33 64 111 81 118 24
10 -6 120 -42 152 -8 7 -47 110 -54 142 -6 26 -10 28 -52 25 -33 -1 -48 2 -53
13 -111 228 -125 269 -126 353 0 57 3 71 19 83 28 20 38 18 89 -22 40 -31 46
-41 52 -85 4 -27 10 -49 14 -49 5 0 11 46 15 103 3 56 11 120 17 141 14 49 76
144 100 151 10 3 25 26 35 51 11 29 27 50 45 60 15 7 36 27 46 44 12 22 22 28
36 24 11 -3 23 1 30 10 11 16 16 16 62 0 28 -9 61 -19 75 -24 14 -4 34 -11 45
-15 20 -8 20 -8 1 13 -21 24 -21 24 69 36 22 4 55 9 74 12 46 9 138 -15 188
-49 45 -30 74 -65 107 -131 14 -27 40 -54 78 -78 48 -32 59 -45 74 -90 11 -33
20 -100 24 -178 l6 -125 17 54 c9 30 17 64 17 75 1 29 30 64 62 71 25 6 28 4
38 -37 17 -66 20 -68 15 -10 -3 30 -7 58 -11 63 -3 5 2 6 10 3 24 -9 39 -61
33 -114 -4 -29 -26 -90 -57 -152 -28 -57 -55 -119 -59 -138 -7 -33 -9 -35 -50
-35 l-44 0 -13 -53 c-14 -55 -35 -100 -65 -143 -27 -39 -37 -291 -15 -375 9
-34 16 -101 16 -148 0 -49 4 -86 10 -86 32 0 71 170 72 314 0 33 5 53 10 50 6
-4 23 -35 39 -70 45 -101 82 -140 174 -184 131 -63 225 -105 310 -140 44 -18
88 -36 97 -41 10 -5 22 -9 28 -9 7 0 10 378 10 1145 l0 1145 -1185 0 -1185 0
0 -1124z m434 1022 c10 -38 7 -42 -13 -22 -10 10 -16 25 -13 32 7 19 19 14 26
-10z m31 -58 c3 -5 1 -10 -4 -10 -6 0 -11 5 -11 10 0 6 2 10 4 10 3 0 8 -4 11
-10z m1213 -1651 c-3 -8 -7 -3 -11 10 -4 17 -3 21 5 13 5 -5 8 -16 6 -23z"/>
<path d="M1502 1548 c-4 -4 -42 -11 -83 -14 -75 -5 -139 -20 -139 -32 0 -4 -3
-17 -6 -29 -6 -20 -3 -23 26 -23 18 0 46 7 64 15 18 9 61 21 97 29 64 13 93
10 163 -19 16 -7 17 -5 11 16 -4 13 -10 27 -14 32 -13 13 -110 34 -119 25z"/>
<path d="M875 1522 c-16 -4 -30 -12 -30 -17 0 -6 14 -11 30 -13 17 -2 63 -12
103 -23 41 -11 76 -18 80 -15 3 4 -8 19 -24 36 -33 31 -101 45 -159 32z"/>
<path d="M743 1508 c-25 -12 -31 -28 -10 -28 16 0 85 24 93 33 12 11 -59 7
-83 -5z"/>
<path d="M1533 1423 c9 -9 20 -13 24 -9 4 4 1 11 -7 16 -25 16 -35 11 -17 -7z"/>
<path d="M1398 1414 c-10 -3 -18 -8 -18 -11 0 -15 36 -63 48 -63 22 0 52 20
52 35 0 26 20 26 46 0 19 -19 29 -24 37 -16 8 8 5 17 -9 32 -16 15 -37 22 -80
24 -32 2 -67 2 -76 -1z"/>
<path d="M790 1399 c0 -5 5 -7 10 -4 6 3 10 8 10 11 0 2 -4 4 -10 4 -5 0 -10
-5 -10 -11z"/>
<path d="M863 1399 c-54 -10 -83 -26 -83 -44 0 -22 28 -18 40 5 14 27 28 25
52 -6 25 -32 57 -28 77 8 9 15 13 29 11 31 -12 11 -59 14 -97 6z"/>
<path d="M1716 1131 c-4 -7 -5 -15 -2 -18 9 -9 19 4 14 18 -4 11 -6 11 -12 0z"/>
<path d="M1060 1070 c0 -5 4 -10 9 -10 6 0 13 5 16 10 3 6 -1 10 -9 10 -9 0
-16 -4 -16 -10z"/>
<path d="M1225 1070 c3 -5 15 -10 26 -10 11 0 17 5 14 10 -3 6 -15 10 -26 10
-11 0 -17 -4 -14 -10z"/>
<path d="M1367 873 c-12 -11 -8 -23 8 -23 8 0 15 7 15 15 0 16 -12 20 -23 8z"/>
<path d="M1150 740 c0 -5 9 -10 19 -10 11 0 23 5 26 10 4 6 -5 10 -19 10 -14
0 -26 -4 -26 -10z"/>
<path d="M1521 671 c-13 -11 -37 -23 -54 -26 -18 -4 -39 -12 -47 -19 -31 -23
-61 -36 -85 -36 -14 0 -29 -8 -35 -19 -10 -20 -29 -21 -89 -2 -37 12 -51 7
-51 -15 0 -13 8 -14 40 -9 23 4 40 3 40 -3 0 -17 -80 -21 -122 -6 -22 8 -48
14 -57 14 -9 0 -34 9 -55 19 -24 13 -49 18 -70 14 -28 -4 -36 -1 -59 28 -14
18 -29 31 -32 27 -4 -3 13 -24 36 -47 34 -32 48 -39 68 -35 19 4 22 3 12 -4
-23 -16 3 -39 62 -57 55 -16 152 -21 128 -6 -8 5 -9 11 -3 15 14 8 43 -4 36
-15 -8 -13 10 -11 25 4 11 10 14 10 18 0 6 -18 51 -16 111 3 55 18 125 74 186
149 38 46 36 60 -3 26z"/>
<path d="M753 598 c-33 -42 -43 -80 -47 -198 -4 -120 -4 -123 34 -228 55 -156
49 -146 71 -118 25 32 24 85 -2 166 -17 52 -22 95 -25 212 -3 150 -11 191 -31
166z"/>
<path d="M558 49 c-21 -11 -38 -24 -38 -29 0 -15 53 -12 96 6 49 20 52 23 34
34 -23 15 -51 11 -92 -11z"/>
<path d="M1785 10 c-8 -13 75 -13 95 0 11 7 0 10 -37 10 -28 0 -55 -4 -58 -10z"/>
</g>
</svg>
